:SAMPLES-PER-SECOND 30
:FULLY-SPECIFIED
:DEGREES
660
root  -21.3126 34.3088 33.0447 -174.503 -46.3168 -177.988
RightUpLeg  -9.38945 -27.9683 -4.35915
RightLeg  6.58286 -1.6319 -0.0814278
RightFoot  12.8858 0.0848147 -0.201814
RightToes  -30.441 -0.146969 -0.256505
Spine  -2.71202 0.6922 0.0417402
Spine1  -5.49134 1.46629 0.738723
HEad  -30.9563 29.7945 -0.332027
LeftShoulder1  -1.94126e-019 -3.10601e-018 -2.51263e-017
LeftArm  -28.5966 33.3467 -78.3059
LeftForeArm  14.5043 -24.7646 -4.47483
LeftHand  -0.361015 0.994157 9.50565
RightShoulder  -4.96962e-017 0 -2.36833e-017
RightArm  -21.0535 -24.1967 76.6653
RightForeArm  52.7392 16.6666 1.1285
RightHand  -0.32653 -0.452666 -7.67405
LeftUpLeg  -5.70317 7.57963 0.861667
LeftLeg  16.5429 20.2308 4.51205
LeftFoot  -3.75968 -0.0475066 -1.28579
LeftToes  -19.6778 2.32378e-006 -5.43956e-008
661
root  -21.4921 34.2892 33.1495 -174.706 -46.1761 -177.931
RightUpLeg  -9.27083 -27.8907 -4.77103
RightLeg  6.8208 -1.54174 -0.0832831
RightFoot  13.1593 0.0843319 -0.189019
RightToes  -31.0753 -0.150268 -0.25937
Spine  -2.68411 0.792222 0.036676
Spine1  -5.43122 1.66481 0.72877
HEad  -30.4345 29.84 -0.188865
LeftShoulder1  -1.94126e-019 -3.10601e-018 -2.51263e-017
LeftArm  -29.2375 34.6558 -79.5593
LeftForeArm  14.1406 -26.5674 -4.89068
LeftHand  -0.356028 0.314416 8.17891
RightShoulder  -4.96962e-017 0 -2.36833e-017
RightArm  -21.0112 -24.3967 76.7394
RightForeArm  52.2358 16.8686 1.15989
RightHand  -0.324523 -0.412083 -7.56858
LeftUpLeg  -5.68312 7.63313 0.595285
LeftLeg  17.1123 20.3116 4.73623
LeftFoot  -4.31925 -0.0629089 -1.50652
LeftToes  -19.0311 2.32378e-006 -5.43956e-008
662
root  -21.6627 34.272 33.2587 -174.877 -46.1846 -177.835
RightUpLeg  -9.22715 -27.9725 -5.10522
RightLeg  7.07482 -1.48561 -0.0868141
RightFoot  13.4607 0.0845911 -0.184177
RightToes  -31.3996 -0.153677 -0.261575
Spine  -2.65758 0.849745 0.0718867
Spine1  -5.37399 1.78007 0.798552
HEad  -30.6854 29.7615 -0.479686
LeftShoulder1  -1.94126e-019 -3.10601e-018 -2.51263e-017
LeftArm  -29.7006 35.5307 -80.6499
LeftForeArm  14.3787 -27.6721 -5.12706
LeftHand  -0.335969 -0.465432 6.75683
RightShoulder  -4.96962e-017 0 -2.36833e-017
RightArm  -20.8191 -24.5399 76.6539
RightForeArm  52.313 16.9757 1.16738
RightHand  -0.329964 -0.125083 -7.3045
LeftUpLeg  -5.71423 7.67798 0.364248
LeftLeg  17.5797 20.2244 4.8867
LeftFoot  -4.81534 -0.0778242 -1.68917
LeftToes  -18.2369 2.32378e-006 -5.43956e-008
663
root  -21.8343 34.2584 33.3714 -175.014 -46.3581 -177.749
RightUpLeg  -9.15429 -28.2262 -5.44622
RightLeg  7.26948 -1.44152 -0.0891182
RightFoot  13.8325 0.0853791 -0.183748
RightToes  -31.8241 -0.156773 -0.26469
Spine  -2.64742 0.858326 0.116922
Spine1  -5.35141 1.79743 0.885961
HEad  -31.0729 29.6901 -0.837163
LeftShoulder1  -1.94126e-019 -3.10601e-018 -2.51263e-017
LeftArm  -29.7487 35.9892 -81.4355
LeftForeArm  15.2741 -28.0958 -5.17527
LeftHand  -0.3186 -0.965192 5.94879
RightShoulder  -4.96962e-017 0 -2.36833e-017
RightArm  -20.7456 -24.6579 76.5339
RightForeArm  52.5966 16.9157 1.15119
RightHand  -0.328673 0.0638414 -7.05634
LeftUpLeg  -5.70676 7.57597 0.117756
LeftLeg  17.8495 20.1629 4.97056
LeftFoot  -5.28385 -0.0934004 -1.86237
LeftToes  -17.2237 2.32378e-006 -5.43956e-008
664
root  -21.9964 34.2516 33.4933 -175.142 -46.6364 -177.652
RightUpLeg  -9.12463 -28.7629 -5.77558
RightLeg  7.51446 -1.18522 -0.0781688
RightFoot  14.2543 0.0829089 -0.133113
RightToes  -32.2877 -0.159988 -0.268126
Spine  -2.62072 0.863817 0.16689
Spine1  -5.29768 1.80639 0.9805
HEad  -31.6584 29.3367 -1.2943
LeftShoulder1  -1.94126e-019 -3.10601e-018 -2.51263e-017
LeftArm  -29.6122 35.9303 -81.888
LeftForeArm  16.0587 -27.771 -5.05782
LeftHand  -0.378393 -0.785218 7.23487
RightShoulder  -4.96962e-017 0 -2.36833e-017
RightArm  -21.3223 -24.7614 76.3868
RightForeArm  52.5276 16.7121 1.13822
RightHand  -0.31865 -0.313372 -7.29645
LeftUpLeg  -5.63726 7.31973 -0.127021
LeftLeg  17.892 20.1351 4.97946
LeftFoot  -5.61863 -0.105445 -1.98699
LeftToes  -16.5009 2.32378e-006 -5.43956e-008
665
root  -22.1544 34.2485 33.6179 -175.155 -46.9345 -177.685
RightUpLeg  -9.17939 -29.2146 -6.19366
RightLeg  7.89986 -0.999643 -0.072518
RightFoot  14.6255 0.0816376 -0.0954825
RightToes  -32.82 -0.163814 -0.27108
Spine  -2.58849 0.853544 0.157484
Spine1  -5.23737 1.78023 0.952954
HEad  -32.2319 28.6005 -1.51799
LeftShoulder1  -1.94126e-019 -3.10601e-018 -2.51263e-017
LeftArm  -29.3575 35.618 -81.8396
LeftForeArm  16.0356 -27.0694 -4.90008
LeftHand  -0.379582 -0.742348 7.30437
RightShoulder  -4.96962e-017 0 -2.36833e-017
RightArm  -22.5859 -24.8086 76.3712
RightForeArm  52.7485 16.2899 1.11895
RightHand  -0.327216 -0.317517 -7.49889
LeftUpLeg  -5.44773 6.57646 -0.413098
LeftLeg  17.7663 19.9788 4.89724
LeftFoot  -5.71535 -0.108216 -2.00607
LeftToes  -16.3617 2.32378e-006 -5.43956e-008
666
root  -22.2991 34.2443 33.7514 -175.233 -47.2896 -177.57
RightUpLeg  -9.41226 -29.7005 -6.42729
RightLeg  8.48777 -0.992588 -0.0822621
RightFoot  14.8773 0.0836099 -0.0995814
RightToes  -33.1473 -0.166885 -0.273786
Spine  -2.54836 0.846027 0.158812
Spine1  -5.16134 1.75915 0.947372
HEad  -33.3415 26.696 -1.92187
LeftShoulder1  -1.94126e-019 -3.10601e-018 -2.51263e-017
LeftArm  -28.8909 35.2117 -81.4722
LeftForeArm  16.083 -26.525 -4.77596
LeftHand  -0.308132 -0.76981 5.92214
RightShoulder  -4.96962e-017 0 -2.36833e-017
RightArm  -23.2356 -24.9188 76.2739
RightForeArm  52.5861 16.0037 1.12822
RightHand  -0.31862 -0.521957 -7.58658
LeftUpLeg  -5.33253 6.96111 -0.675964
LeftLeg  17.3299 19.9124 4.72516
LeftFoot  -6.08602 -0.122069 -2.13435
LeftToes  -15.0049 2.32378e-006 -5.43956e-008
667
root  -22.44 34.2263 33.8991 -175.037 -47.7209 -177.719
RightUpLeg  -9.91199 -29.9976 -6.82458
RightLeg  9.46644 -1.24219 -0.124674
RightFoot  14.7645 0.0911519 -0.161374
RightToes  -33.4193 -0.169316 -0.276009
Spine  -2.49459 0.809749 0.076405
Spine1  -5.05976 1.67689 0.780155
HEad  -35.5288 23.1816 -2.516
LeftShoulder1  -1.94126e-019 -3.10601e-018 -2.51263e-017
LeftArm  -28.0897 34.8498 -80.7092
LeftForeArm  16.3478 -26.4945 -4.75542
LeftHand  -0.31014 -0.617266 6.09784
RightShoulder  -4.96962e-017 0 -2.36833e-017
RightArm  -23.7709 -24.9675 76.308
RightForeArm  53.0917 15.7683 1.12429
RightHand  -0.304879 -0.710474 -7.52936
LeftUpLeg  -5.19032 6.59639 -1.09792
LeftLeg  16.8017 19.8005 4.51201
LeftFoot  -6.20881 -0.126024 -2.16177
LeftToes  -14.7611 2.32378e-006 -5.43956e-008
668
root  -22.5749 34.1946 34.068 -174.411 -48.166 -178.265
RightUpLeg  -10.9542 -29.7738 -7.38973
RightLeg  11.1934 -2.22639 -0.292398
RightFoot  14.1398 0.115788 -0.386154
RightToes  -33.6075 -0.169536 -0.276241
Spine  -2.46184 0.774461 -0.131104
Spine1  -5.0052 1.592 0.362986
HEad  -38.3319 17.8916 -3.6245
LeftShoulder1  -1.94126e-019 -3.10601e-018 -2.51263e-017
LeftArm  -27.1259 34.6017 -79.5842
LeftForeArm  16.5134 -27.0818 -4.87863
LeftHand  -0.310568 -0.488173 6.22855
RightShoulder  -4.96962e-017 0 -2.36833e-017
RightArm  -23.9706 -24.931 76.5486
RightForeArm  53.8572 15.3705 1.1341
RightHand  -0.294963 -1.11299 -7.92126
LeftUpLeg  -5.13164 5.72248 -1.78911
LeftLeg  16.2397 19.6802 4.28794
LeftFoot  -6.22724 -0.12569 -2.14874
LeftToes  -14.7852 2.32378e-006 -5.43956e-008
669
root  -22.706 34.1538 34.2271 -173.767 -48.5064 -178.84
RightUpLeg  -12.455 -29.5485 -7.78977
RightLeg  13.7026 -4.0329 -0.711047
RightFoot  13.0255 0.149443 -0.751812
RightToes  -32.9578 -0.16481 -0.271989
Spine  -2.34452 0.779187 -0.328864
Spine1  -4.77839 1.58567 -0.0270904
HEad  -41.6177 11.7132 -4.96384
LeftShoulder1  -1.94126e-019 -3.10601e-018 -2.51263e-017
LeftArm  -26.4147 34.0491 -78.4394
LeftForeArm  15.5213 -28.1081 -5.16755
LeftHand  -0.290424 -0.148205 6.15381
RightShoulder  -4.96962e-017 0 -2.36833e-017
RightArm  -24.7992 -24.4482 76.831
RightForeArm  55.0232 14.5519 1.201
RightHand  -0.290024 -1.41337 -8.33924
LeftUpLeg  -5.0195 6.09843 -2.5286
LeftLeg  15.3662 19.4731 3.94176
LeftFoot  -6.55734 -0.137169 -2.23253
LeftToes  -13.4833 2.32378e-006 -5.43956e-008
670
root  -22.821 34.1192 34.326 -173.571 -48.6888 -178.965
RightUpLeg  -14.4314 -29.6416 -7.44228
RightLeg  17.0897 -7.03624 -1.6718
RightFoot  10.9583 0.169383 -1.19221
RightToes  -28.6881 -0.134992 -0.242745
Spine  -2.21986 0.776618 -0.468763
Spine1  -4.54131 1.56818 -0.312347
HEad  -44.779 5.03791 -5.8579
LeftShoulder1  -1.94126e-019 -3.10601e-018 -2.51263e-017
LeftArm  -28.263 33.5214 -77.6062
LeftForeArm  12.4172 -29.6274 -5.69923
LeftHand  -0.215668 0.630891 5.23717
RightShoulder  -4.96962e-017 0 -2.36833e-017
RightArm  -25.9499 -24.0066 77.3436
RightForeArm  56.0751 13.882 1.2744
RightHand  -0.269247 -1.67872 -8.24753
LeftUpLeg  -4.75621 6.42799 -2.77996
LeftLeg  14.6632 18.883 3.59144
LeftFoot  -6.67706 -0.137316 -2.19205
LeftToes  -14.4651 2.32378e-006 -5.43956e-008
